User Type,Username,Date,Text
,TedLilly,2012-03-26T02:17Z,thanks for the up
,agnosticj,2012-03-27T03:50Z,Is this Engrish?
,gorann74,2012-03-31T17:38Z,thanks for seedeng
,imzima,2012-04-07T15:52Z,"hardcoded subs?
anyone with actual info on the quality of the file?
TedLilly"
,tz97df,2012-04-09T02:05Z,"Thanks for putting this up.

I should let others know that there are non-english subs that make it difficult to read the english subs that the movie contains when actors are speaking other languages.

Other than that it was enjoyable to watch. No audio or video problems.

General
Complete name                            : C:UsersjamieVideos{www.scenetime.com}Act.Of.Valor.2012.HDRip.XviD-HOPEAct.Of.Valor.2012.HDRip.XviD-HOPE.avi
Format                                   : AVI
Format/Info                              : Audio Video Interleave
File size                                : 1.47 GiB
Duration                                 : 1h 49mn
Overall bit rate                         : 1 920 Kbps
Writing application                      : Lavf53.12.0
Writing library                          : VirtualDub build 31536/release

Video
ID                                       : 0
Format                                   : MPEG-4 Visual
Format profile                           : Advanced Simple@L5
Format settings, BVOP                    : 2
Format settings, QPel                    : No
Format settings, GMC                     : No warppoints
Format settings, Matrix                  : Default (H.263)
Muxing mode                              : Packed bitstream
Codec ID                                 : XVID
Codec ID/Hint                            : XviD
Duration                                 : 1h 49mn
Bit rate                                 : 1 781 Kbps
Width                                    : 720 pixels
Height                                   : 280 pixels
Display aspect ratio                     : 2.571
Frame rate                               : 29.970 fps
Color space                              : YUV
Chroma subsampling                       : 4:2:0
Bit depth                                : 8 bits
Scan type                                : Progressive
Compression mode                         : Lossy
Bits/(Pixel*Frame)                       : 0.295
Stream size                              : 1.37 GiB (93%)
Writing library                          : XviD 64

Audio
ID                                       : 1
Format                                   : MPEG Audio
Format version                           : Version 1
Format profile                           : Layer 3
Codec ID                                 : 55
Codec ID/Hint                            : MP3
Duration                                 : 1h 49mn
Bit rate mode                            : Constant
Bit rate                                 : 128 Kbps
Channel(s)                               : 2 channels
Sampling rate                            : 48.0 KHz
Compression mode                         : Lossy
Stream size                              : 101 MiB (7%)
Alignment                                : Split accross interleaves
Interleave, duration                     : 33 ms (1.00 video frame)
Interleave, preload duration             : 500 ms
Writing library                          : LAME3.98.4
"
,tz97df,2012-04-09T02:06Z,"Thanks for putting this up.

I should let others know that there are non-english subs that make it difficult to read the english subs that the movie contains when actors are speaking other languages.

Other than that it was enjoyable to watch. No audio or video problems."
